<svg width="24" height="24" viewBox="0 0 24 24" fill="none" xmlns="http://www.w3.org/2000/svg">
<path d="M0 12C0 5.37258 5.37258 0 12 0C18.6274 0 24 5.37258 24 12C24 18.6274 18.6274 24 12 24C5.37258 24 0 18.6274 0 12Z" fill="#FF0000"/>
<path d="M18.1325 9.03658C17.9853 8.47108 17.5515 8.02577 17.0008 7.87464C16.0027 7.59998 12 7.59998 12 7.59998C12 7.59998 7.99728 7.59998 6.9991 7.87464C6.44834 8.02577 6.01459 8.47108 5.86739 9.03658C5.59998 10.0615 5.59998 12.2 5.59998 12.2C5.59998 12.2 5.59998 14.3384 5.86739 15.3634C6.01459 15.9289 6.44834 16.3742 6.9991 16.5254C7.99728 16.8 12 16.8 12 16.8C12 16.8 16.0027 16.8 17.0008 16.5254C17.5515 16.3742 17.9853 15.9289 18.1325 15.3634C18.4 14.3384 18.4 12.2 18.4 12.2C18.4 12.2 18.4 10.0615 18.1325 9.03658Z" fill="white"/>
<path d="M10.7999 14.4V10.4L13.9999 12.4001L10.7999 14.4Z" fill="#FF0000"/>
</svg>