<svg width="24" height="24" viewBox="0 0 24 24" fill="none" xmlns="http://www.w3.org/2000/svg">
<path d="M0 12C0 5.37258 5.37258 0 12 0C18.6274 0 24 5.37258 24 12C24 18.6274 18.6274 24 12 24C5.37258 24 0 18.6274 0 12Z" fill="#0077B5"/>
<path fill-rule="evenodd" clip-rule="evenodd" d="M8.65936 7.41135C8.65936 8.1959 8.0688 8.82367 7.12057 8.82367H7.10319C6.1902 8.82367 5.59998 8.1959 5.59998 7.41135C5.59998 6.6102 6.20818 6 7.13849 6C8.0688 6 8.64171 6.6102 8.65936 7.41135ZM8.48029 9.93892V18.1098H5.76083V9.93892H8.48029ZM18.2876 18.1098L18.2877 13.4249C18.2877 10.9151 16.9461 9.74706 15.1566 9.74706C13.7127 9.74706 13.0663 10.5401 12.7054 11.0965V9.93914H9.98558C10.0214 10.7059 9.98558 18.11 9.98558 18.11H12.7054V13.5467C12.7054 13.3025 12.723 13.0589 12.7949 12.8841C12.9915 12.3962 13.439 11.8911 14.1903 11.8911C15.1747 11.8911 15.5683 12.6404 15.5683 13.7384V18.1098H18.2876Z" fill="white"/>
</svg>
