<svg width="80" height="80" viewBox="0 0 80 80" fill="none" xmlns="http://www.w3.org/2000/svg">
<rect width="80" height="80" rx="19" fill="#0A0032"/>
<path d="M55.9139 47.6516V31.907C55.9134 30.3115 55.4942 28.7441 54.6983 27.3623C53.9024 25.9805 52.7578 24.8329 51.3795 24.0348L37.7695 16.1625C36.39 15.3649 34.8254 14.9451 33.2329 14.9451C31.6403 14.9451 30.0758 15.3649 28.6962 16.1625L15.0862 24.0348C13.7077 24.8328 12.5628 25.9803 11.7665 27.3621C10.9702 28.7439 10.5505 30.3113 10.5496 31.907V47.6516C10.55 49.2475 10.9695 50.8151 11.7659 52.1969C12.5622 53.5788 13.7073 54.7262 15.0862 55.5239L28.6962 63.3962C30.0754 64.1949 31.6401 64.6154 33.2329 64.6154C34.8257 64.6154 36.3904 64.1949 37.7695 63.3962L51.3795 55.5239C52.7582 54.7261 53.903 53.5786 54.6989 52.1967C55.4949 50.8148 55.9139 49.2473 55.9139 47.6516V47.6516Z" fill="url(#paint0_linear)"/>
<path d="M69.011 47.6516V31.907C69.0101 30.3113 68.5904 28.7439 67.7941 27.3621C66.9978 25.9803 65.853 24.8328 64.4744 24.0348L50.8644 16.1625C49.4848 15.3649 47.9203 14.9451 46.3277 14.9451C44.7352 14.9451 43.1706 15.3649 41.7911 16.1625L28.1764 24.0348C26.7981 24.8329 25.6536 25.9805 24.8577 27.3623C24.0618 28.7441 23.6426 30.3115 23.6421 31.907V47.6516C23.6421 49.2473 24.0611 50.8148 24.8571 52.1967C25.653 53.5786 26.7978 54.7261 28.1764 55.5239L41.7864 63.3962C43.1656 64.1949 44.7303 64.6154 46.3231 64.6154C47.9159 64.6154 49.4806 64.1949 50.8598 63.3962L64.4698 55.5239C65.8495 54.7268 66.9956 53.5796 67.7927 52.1977C68.5899 50.8158 69.0101 49.2479 69.011 47.6516Z" fill="url(#paint1_linear)"/>
<defs>
<linearGradient id="paint0_linear" x1="21.8912" y1="59.4693" x2="44.6551" y2="20.136" gradientUnits="userSpaceOnUse">
<stop offset="0.1" stop-color="#9650FF"/>
<stop offset="1" stop-color="#00E6FF" stop-opacity="0"/>
</linearGradient>
<linearGradient id="paint1_linear" x1="34.9861" y1="59.4693" x2="57.7499" y2="20.136" gradientUnits="userSpaceOnUse">
<stop stop-color="#9650FF" stop-opacity="0"/>
<stop offset="0.9" stop-color="#00E6FF"/>
</linearGradient>
</defs>
</svg>
